<svg xmlns="http://www.w3.org/2000/svg" width="98.334" height="98.334" viewBox="0 0 98.334 98.334">
  <g id="Chat_Icon" data-name="Chat Icon" transform="translate(-1137.5 -8687.333)">
    <path id="Subtraction_1" data-name="Subtraction 1" d="M0,6119.334v-87.409A10.926,10.926,0,0,1,10.925,6021H87.407a10.926,10.926,0,0,1,10.927,10.925v54.63a10.926,10.926,0,0,1-10.927,10.927H21.852L0,6119.333Zm32.5-46.667a5,5,0,0,0,0,10h34a5,5,0,1,0,0-10Zm-.5-13a4.5,4.5,0,0,0,0,9H67a4.5,4.5,0,1,0,0-9Zm0-13a4.5,4.5,0,0,0,0,9H67a4.5,4.5,0,1,0,0-9Z" transform="translate(1137.5 2666.333)" fill="#fff"/>
  </g>
</svg>
