<svg xmlns="http://www.w3.org/2000/svg" width="70" height="70" viewBox="0 0 70 70">
  <g id="Group_53290" data-name="Group 53290" transform="translate(-1231 -254)">
    <g id="Group_53240" data-name="Group 53240" transform="translate(422 -6)">
      <circle id="Ellipse_61" data-name="Ellipse 61" cx="35" cy="35" r="35" transform="translate(809 260)" fill="rgba(45,64,246,0.15)"/>
      <circle id="Ellipse_60" data-name="Ellipse 60" cx="30" cy="30" r="30" transform="translate(814 265)" fill="#2d40f6"/>
    </g>
    <g id="Glyph" transform="translate(1249 271)">
      <g id="Glyph-2" data-name="Glyph" transform="translate(0 0)">
        <path id="Path_7558" data-name="Path 7558" d="M92.6,71.789a1.506,1.506,0,0,0,1.5-1.5V67A1.5,1.5,0,1,0,91.1,67v3.281a1.506,1.506,0,0,0,1.5,1.5Z" transform="translate(-66.19 -47.59)" fill="#fff"/>
        <path id="Path_7559" data-name="Path 7559" d="M0,53.105A3.7,3.7,0,0,0,3.691,56.8H31.309A3.7,3.7,0,0,0,35,53.105V30H0ZM23,41.211a3.418,3.418,0,0,1,6.836,0v3.281a3.418,3.418,0,0,1-6.836,0Zm-8.914-.82a2.6,2.6,0,0,1,2.6-2.6h3.281a.957.957,0,0,1,0,1.914H16.68a.684.684,0,0,0-.684.684v1.5h3.965a.957.957,0,0,1,0,1.914H16v1.5A.684.684,0,0,0,16.68,46h3.281a.957.957,0,0,1,0,1.914H16.68a2.6,2.6,0,0,1-2.6-2.6ZM9,43.809h-.82a3.008,3.008,0,0,1,0-6.016h1.23a2.6,2.6,0,0,1,2.6,2.6.957.957,0,0,1-1.914,0,.684.684,0,0,0-.684-.684H8.176a1.094,1.094,0,1,0,0,2.188H9A3.008,3.008,0,0,1,9,47.91H7.766a2.6,2.6,0,0,1-2.6-2.6.957.957,0,1,1,1.914,0A.684.684,0,0,0,7.766,46H9a1.094,1.094,0,0,0,0-2.187Z" transform="translate(0 -21.797)" fill="#fff"/>
        <path id="Path_7560" data-name="Path 7560" d="M31.309,0H3.691A3.7,3.7,0,0,0,0,3.691V7.383H35V3.691A3.7,3.7,0,0,0,31.309,0ZM4.238,5.059a.82.82,0,1,1,.82-.82.82.82,0,0,1-.82.82Zm4.375,0a.82.82,0,1,1,.82-.82A.82.82,0,0,1,8.613,5.059Zm4.375,0a.82.82,0,1,1,.82-.82A.82.82,0,0,1,12.988,5.059Zm17.5,0H26.113a.82.82,0,1,1,0-1.641h4.375a.82.82,0,0,1,0,1.641Z" transform="translate(0 0)" fill="#fff"/>
      </g>
    </g>
  </g>
</svg>
