<svg xmlns="http://www.w3.org/2000/svg" width="70" height="70" viewBox="0 0 70 70">
  <g id="Group_53287" data-name="Group 53287" transform="translate(-1231 -466)">
    <g id="Group_53242" data-name="Group 53242" transform="translate(422 206)">
      <circle id="Ellipse_61" data-name="Ellipse 61" cx="35" cy="35" r="35" transform="translate(809 260)" fill="rgba(45,64,246,0.15)"/>
      <circle id="Ellipse_60" data-name="Ellipse 60" cx="30" cy="30" r="30" transform="translate(814 265)" fill="#2d40f6"/>
    </g>
    <g id="_x31_7" transform="translate(1247 482)">
      <path id="Path_7552" data-name="Path 7552" d="M27,6.5,18.594,4.048A1.25,1.25,0,0,0,17,5.25v10a1.25,1.25,0,0,0,1.594,1.2L27,14Z" transform="translate(3.75 0.5)" fill="#fff"/>
      <path id="Path_7553" data-name="Path 7553" d="M28.5,6H26v7.5h2.5A2.5,2.5,0,0,0,31,11V8.5A2.5,2.5,0,0,0,28.5,6Z" transform="translate(6 1)" fill="#fff"/>
      <path id="Path_7554" data-name="Path 7554" d="M27.5,16.75H25L26.25,13h2.5Z" transform="translate(5.75 2.75)" fill="#fff"/>
      <path id="Path_7555" data-name="Path 7555" d="M19.027,9.382l-2.371-.593a6.159,6.159,0,0,0-.341-.83L17.57,5.865a.625.625,0,0,0-.094-.763L16.4,4.024a.625.625,0,0,0-.763-.094L13.542,5.186a6.169,6.169,0,0,0-.83-.341l-.593-2.371A.625.625,0,0,0,11.512,2H9.988a.625.625,0,0,0-.606.473L8.789,4.845a6.159,6.159,0,0,0-.83.341L5.865,3.93a.625.625,0,0,0-.763.094L4.024,5.1a.625.625,0,0,0-.094.763L5.186,7.958a6.159,6.159,0,0,0-.341.83l-2.371.593A.625.625,0,0,0,2,9.988v1.524a.625.625,0,0,0,.473.606l2.371.593a6.159,6.159,0,0,0,.341.83L3.93,15.635a.625.625,0,0,0,.094.763L5.1,17.476a.625.625,0,0,0,.763.094l2.093-1.256a6.159,6.159,0,0,0,.83.341l.593,2.371a.625.625,0,0,0,.606.473h1.524a.625.625,0,0,0,.606-.473l.593-2.371a6.169,6.169,0,0,0,.83-.341l2.093,1.256a.625.625,0,0,0,.763-.094L17.476,16.4a.625.625,0,0,0,.094-.763l-1.256-2.093a6.159,6.159,0,0,0,.341-.83l2.371-.593a.625.625,0,0,0,.473-.606V9.988a.625.625,0,0,0-.473-.606ZM10.75,14.5a3.75,3.75,0,1,1,3.75-3.75A3.75,3.75,0,0,1,10.75,14.5Z" fill="#fff"/>
      <circle id="Ellipse_72" data-name="Ellipse 72" cx="2.5" cy="2.5" r="2.5" transform="translate(8.25 8.25)" fill="#fff"/>
      <path id="Path_7556" data-name="Path 7556" d="M22.125,27.5a6.192,6.192,0,0,1-3.435-1.04L9,20V30a2.5,2.5,0,0,0,2.5,2.5H32.75a2.5,2.5,0,0,0,2.5-2.5V20l-9.69,6.46A6.193,6.193,0,0,1,22.125,27.5Z" transform="translate(1.75 4.5)" fill="#fff"/>
      <path id="Path_7557" data-name="Path 7557" d="M9,18.628H9a1.628,1.628,0,0,0,.725,1.355L18.69,25.96A6.193,6.193,0,0,0,22.125,27h0a6.193,6.193,0,0,0,3.435-1.04l8.965-5.977a1.628,1.628,0,0,0,.725-1.355h0A1.628,1.628,0,0,0,33.622,17H10.628A1.628,1.628,0,0,0,9,18.628Z" transform="translate(1.75 3.75)" fill="#fff"/>
    </g>
  </g>
</svg>
