<svg xmlns="http://www.w3.org/2000/svg" width="70" height="70" viewBox="0 0 70 70">
  <g id="Group_53286" data-name="Group 53286" transform="translate(-826 -572)">
    <g id="Group_53222" data-name="Group 53222" transform="translate(17 312)">
      <circle id="Ellipse_61" data-name="Ellipse 61" cx="35" cy="35" r="35" transform="translate(809 260)" fill="rgba(45,64,246,0.15)"/>
      <circle id="Ellipse_60" data-name="Ellipse 60" cx="30" cy="30" r="30" transform="translate(814 265)" fill="#2d40f6"/>
    </g>
    <g id="Group_53274" data-name="Group 53274" transform="translate(-1690 7632)">
      <path id="Subtraction_1" data-name="Subtraction 1" d="M9.912,19.824a9.912,9.912,0,1,1,9.912-9.912A9.923,9.923,0,0,1,9.912,19.824Zm-5-7.314a1.336,1.336,0,0,0,.912.93l.009,0a31.432,31.432,0,0,0,4.149.225,31.508,31.508,0,0,0,4.149-.225,1.336,1.336,0,0,0,.92-.925l0-.009a13.788,13.788,0,0,0,.221-2.493c0-.032,0-.065,0-.1s0-.066,0-.1a14.285,14.285,0,0,0-.234-2.58l.013.087a1.336,1.336,0,0,0-.913-.932l-.009,0a31.519,31.519,0,0,0-4.149-.224H9.963c-.094,0-.943,0-1.854.03a12.836,12.836,0,0,0-2.281.195,1.336,1.336,0,0,0-.919.925l0,.009A14.7,14.7,0,0,0,4.921,12.6l-.013-.086Zm4.009-.983h0V8.308L11.682,9.92,8.917,11.527Z" transform="translate(2541.546 -7034.454)" fill="#fff"/>
      <path id="Path_7532" data-name="Path 7532" d="M35,19.688V15.313H32.656a15.206,15.206,0,0,0-.935-3.5l2.028-1.171L31.562,6.856l-2.03,1.172a15.4,15.4,0,0,0-2.559-2.559l1.172-2.03L24.356,1.251,23.185,3.278a15.206,15.206,0,0,0-3.5-.935V0H15.313V2.344a15.206,15.206,0,0,0-3.5.935L10.644,1.251,6.856,3.438l1.172,2.03A15.4,15.4,0,0,0,5.468,8.028L3.438,6.856,1.251,10.644l2.028,1.171a15.206,15.206,0,0,0-.935,3.5H0v4.375H2.344a15.206,15.206,0,0,0,.935,3.5L1.251,24.356l2.187,3.789,2.03-1.172a15.4,15.4,0,0,0,2.559,2.559l-1.172,2.03,3.789,2.188,1.171-2.028a15.206,15.206,0,0,0,3.5.935V35h4.375V32.656a15.206,15.206,0,0,0,3.5-.935l1.171,2.028,3.789-2.188-1.172-2.03a15.4,15.4,0,0,0,2.559-2.559l2.03,1.172,2.187-3.789-2.028-1.171a15.206,15.206,0,0,0,.935-3.5ZM17.5,29.463A11.963,11.963,0,1,1,29.463,17.5,11.976,11.976,0,0,1,17.5,29.463Z" transform="translate(2534 -7042)" fill="#fff"/>
    </g>
  </g>
</svg>
