<svg xmlns="http://www.w3.org/2000/svg" width="70" height="70" viewBox="0 0 70 70">
  <g id="Group_53293" data-name="Group 53293" transform="translate(-826 -148)">
    <g id="Group_53219" data-name="Group 53219" transform="translate(17 -4)">
      <circle id="Ellipse_59" data-name="Ellipse 59" cx="35" cy="35" r="35" transform="translate(809 152)" fill="rgba(45,64,246,0.15)"/>
      <circle id="Ellipse_58" data-name="Ellipse 58" cx="30" cy="30" r="30" transform="translate(814 157)" fill="#2d40f6"/>
    </g>
    <g id="advertising_2_" data-name="advertising (2)" transform="translate(837.42 161.5)">
      <path id="Path_7516" data-name="Path 7516" d="M44.76,39.165c-.1-.07-3.984-8.513-4.2-8.889a1.226,1.226,0,0,0-.244-1.176c-1.525-1.349-5.242,2.137-6.712,3.472-.647.688-5.134,4.821-3.753,6.556a1.212,1.212,0,0,0,1.145.288l5.78,3.04-2.8,2.69a1.536,1.536,0,0,0-.488,1.1,2.094,2.094,0,0,0,.857,1.564,1.579,1.579,0,0,0,2.233.05l3.753-3.6a3.71,3.71,0,0,0,4.435-5.1Zm-13.887-.988c-.007-.555,1.24-2.425,3.591-4.7,2.384-2.267,4.263-3.364,4.861-3.4-.335.962-1.335,2.458-3.628,4.692C33.381,36.927,31.834,37.9,30.872,38.176Z" transform="translate(-7.514 -9.298)" fill="#fff"/>
      <path id="Path_7517" data-name="Path 7517" d="M36.976,23.9a.625.625,0,0,0-.6.65l.1,2.425a.625.625,0,0,0,1.25-.049l-.1-2.425a.617.617,0,0,0-.65-.6Z" transform="translate(-10.061 -7.461)" fill="#fff"/>
      <path id="Path_7518" data-name="Path 7518" d="M25.695,34.777a.626.626,0,1,0-.1,1.247l2.419.2a.626.626,0,1,0,.1-1.247Z" transform="translate(-5.802 -11.541)" fill="#fff"/>
      <path id="Path_7519" data-name="Path 7519" d="M31.371,30.917a.626.626,0,1,0,.9-.866l-1.452-1.516a.626.626,0,0,0-.9.866Z" transform="translate(-7.575 -9.128)" fill="#fff"/>
      <path id="Path_7520" data-name="Path 7520" d="M15.5,38.531a5.958,5.958,0,1,0,5.962,5.961A5.963,5.963,0,0,0,15.5,38.531Zm1.195,4.8v2.4a1.887,1.887,0,0,1-1.814,1.945h-.538a1.648,1.648,0,0,1,0-3.29.655.655,0,0,1,.657.626.6.6,0,0,1-.6.626c-.2-.026-.348.153-.35.394,0,.213.131.394.294.394h.538a.639.639,0,0,0,.563-.694V41.921a.631.631,0,0,1,1.057-.45,18.185,18.185,0,0,0,1.877,1.583.612.612,0,0,1,.463.269.625.625,0,0,1-.163.87c-.307.213-.544.375-1.983-.857Z" transform="translate(0 -12.949)" fill="#fff"/>
      <path id="Path_7521" data-name="Path 7521" d="M15.5,27.3a5.958,5.958,0,1,0-5.955-5.955A5.963,5.963,0,0,0,15.5,27.3Zm-2.077-6.331h.97V19.915A2.311,2.311,0,0,1,16.7,17.607c.646-.015,1.85.362,1.414,1.2a.627.627,0,0,1-.857.206,1.042,1.042,0,0,0-.557-.156,1.056,1.056,0,0,0-1.057,1.057v1.051h1.182a.626.626,0,1,1,0,1.251H15.645V24.45a.626.626,0,1,1-1.251,0V22.217h-.97a.626.626,0,1,1,0-1.251Z" transform="translate(0 -4.279)" fill="#fff"/>
      <path id="Path_7522" data-name="Path 7522" d="M36.383,16.061a6.046,6.046,0,1,0-6.049-6.049,6.052,6.052,0,0,0,6.049,6.049ZM33.024,8.267a1.613,1.613,0,0,1,1.608-1.614h3.5a1.618,1.618,0,0,1,1.614,1.614v3.5a1.612,1.612,0,0,1-1.614,1.608h-3.5a1.607,1.607,0,0,1-1.608-1.608Z" transform="translate(-7.796)" fill="#fff"/>
      <path id="Path_7523" data-name="Path 7523" d="M37,14.462h3.5a.358.358,0,0,0,.363-.357v-3.5a.363.363,0,0,0-.363-.363H37a.358.358,0,0,0-.357.363v3.5a.352.352,0,0,0,.357.357Zm1.752-3.822a1.717,1.717,0,1,1-1.717,1.717,1.717,1.717,0,0,1,1.717-1.717Z" transform="translate(-10.16 -2.342)" fill="#fff"/>
      <path id="Path_7524" data-name="Path 7524" d="M39.74,13.81a.466.466,0,1,0-.454-.466.466.466,0,0,0,.454.466Z" transform="translate(-11.153 -3.329)" fill="#fff"/>
    </g>
  </g>
</svg>
