<svg xmlns="http://www.w3.org/2000/svg" width="70" height="70" viewBox="0 0 70 70">
  <g id="Group_53289" data-name="Group 53289" transform="translate(-1231 -360)">
    <g id="Group_53241" data-name="Group 53241" transform="translate(422 100)">
      <circle id="Ellipse_61" data-name="Ellipse 61" cx="35" cy="35" r="35" transform="translate(809 260)" fill="rgba(45,64,246,0.15)"/>
      <circle id="Ellipse_60" data-name="Ellipse 60" cx="30" cy="30" r="30" transform="translate(814 265)" fill="#2d40f6"/>
    </g>
    <g id="pay-per-click" transform="translate(1242.909 377.5)">
      <path id="Path_7546" data-name="Path 7546" d="M42.68,25A15.8,15.8,0,0,0,27.3,44.417c.16-.026-.187.006,4.43-.378a11.416,11.416,0,1,1,7.992,7.785c-.37,4.45-.364,4.382-.368,4.415A15.793,15.793,0,1,0,42.68,25Z" transform="translate(-19.452 -23.294)" fill="#fff"/>
      <path id="Path_7547" data-name="Path 7547" d="M437.751,26.849l1.094-1.094a1.025,1.025,0,1,0-1.45-1.45L436.3,25.4a1.025,1.025,0,0,0,1.45,1.45Z" transform="translate(-400.605 -22.363)" fill="#fff"/>
      <path id="Path_7548" data-name="Path 7548" d="M388.632,3.136a1.025,1.025,0,0,0,1.339-.558l.478-1.162a1.025,1.025,0,1,0-1.9-.781L388.075,1.8A1.025,1.025,0,0,0,388.632,3.136Z" transform="translate(-355.883)" fill="#fff"/>
      <path id="Path_7549" data-name="Path 7549" d="M463.034,80.568a1.025,1.025,0,0,0-1.376-.459l-1.094.547a1.025,1.025,0,0,0,.917,1.834l1.094-.547A1.025,1.025,0,0,0,463.034,80.568Z" transform="translate(-422.962 -74.532)" fill="#fff"/>
      <path id="Path_7550" data-name="Path 7550" d="M17.53,327.111l-9.281.773a1.026,1.026,0,0,0-.64,1.747l1.6,1.6L6.3,334.172a1.025,1.025,0,0,0,0,1.446l3.828,3.828a1.025,1.025,0,0,0,1.446,0l2.942-2.911,1.6,1.6a1.026,1.026,0,0,0,1.747-.64l.773-9.281A1.026,1.026,0,0,0,17.53,327.111Z" transform="translate(0 -304.746)" fill="#fff"/>
      <path id="Path_7551" data-name="Path 7551" d="M130.366,119a9.366,9.366,0,0,0-8.848,12.434c3.2-.266,3.059-.259,3.236-.259a3.077,3.077,0,0,1,3.065,3.332l-.233,2.8A9.365,9.365,0,1,0,130.366,119Zm2.943,11.406a3.037,3.037,0,0,1-1.964,2.356v.256a1.025,1.025,0,0,1-1.075,1.024,1.044,1.044,0,0,1-.976-1.053v-.111a3.676,3.676,0,0,1-1.414-.593,1.047,1.047,0,0,1-.353-1.409,1.025,1.025,0,0,1,1.44-.33,1.817,1.817,0,0,0,1.345.348.974.974,0,0,0,.974-.827.684.684,0,0,0-.514-.818,8.483,8.483,0,0,1-2.343-1.131,2.568,2.568,0,0,1,.865-4.3v-.106a1.025,1.025,0,0,1,1.075-1.024,1.044,1.044,0,0,1,.976,1.072,4,4,0,0,1,1.193.508,1.025,1.025,0,0,1,.311,1.452,1.045,1.045,0,0,1-1.439.262,1.875,1.875,0,0,0-1.243-.26.607.607,0,0,0-.512.465.457.457,0,0,0,.04.316,5.355,5.355,0,0,0,1.761.812,2.73,2.73,0,0,1,1.853,3.092Z" transform="translate(-107.139 -110.868)" fill="#fff"/>
    </g>
  </g>
</svg>
