<svg xmlns="http://www.w3.org/2000/svg" width="70" height="70" viewBox="0 0 70 70">
  <g id="Group_53280" data-name="Group 53280" transform="translate(-826 -360)">
    <g id="Group_53220" data-name="Group 53220" transform="translate(17 100)">
      <circle id="Ellipse_61" data-name="Ellipse 61" cx="35" cy="35" r="35" transform="translate(809 260)" fill="rgba(45,64,246,0.15)"/>
      <circle id="Ellipse_60" data-name="Ellipse 60" cx="30" cy="30" r="30" transform="translate(814 265)" fill="#2d40f6"/>
    </g>
    <g id="social-media-campaign" transform="translate(838 374)">
      <path id="Path_7525" data-name="Path 7525" d="M34.1,74.775a1.175,1.175,0,0,0-1.157-.871l-.032-.294h-3.6l.545,5.179a2.391,2.391,0,0,0,.871,1.607c.915.811,2.908.788,2.812-.792l-.266-2.542a1.2,1.2,0,0,0,1.042-1.507l-.215-.776Z" transform="translate(-13.436 -41.923)" fill="#fff"/>
      <path id="Path_7526" data-name="Path 7526" d="M23.308,9H8.591A1.591,1.591,0,0,0,7,10.591V21.33a1.591,1.591,0,0,0,1.591,1.591h8.571l2.665,3.047a.4.4,0,0,0,.7-.263V22.921h2.784A1.591,1.591,0,0,0,24.9,21.33V10.591A1.591,1.591,0,0,0,23.308,9Zm-3.48,7.47-3.146,3.146a1.039,1.039,0,0,1-1.464,0L12.071,16.47a2.633,2.633,0,0,1-.024-3.687,2.663,2.663,0,0,1,3.9.163,2.663,2.663,0,0,1,3.9-.163,2.633,2.633,0,0,1-.024,3.687Z" transform="translate(0 -3.011)" fill="#fff"/>
      <path id="Path_7527" data-name="Path 7527" d="M60.392,4H45.675A1.591,1.591,0,0,0,44.14,5.193h1.535A2.388,2.388,0,0,1,48.062,7.58V17.921h.4v2.784a.4.4,0,0,0,.7.263l2.665-3.047h8.571a1.591,1.591,0,0,0,1.591-1.591V5.591A1.591,1.591,0,0,0,60.392,4Zm-4.335,8.257L52.1,14.234a1.456,1.456,0,0,1-2.1-1.3V8.98a1.459,1.459,0,0,1,2.1-1.3L56.057,9.66a1.459,1.459,0,0,1,0,2.593Z" transform="translate(-22.368)" fill="#fff"/>
      <path id="Path_7528" data-name="Path 7528" d="M29.159,53.61H24.386A2.388,2.388,0,0,0,22,56v2.386a2.388,2.388,0,0,0,2.386,2.386h4.773Z" transform="translate(-9.034 -29.878)" fill="#fff"/>
      <path id="Path_7529" data-name="Path 7529" d="M51.546,45.594a17.121,17.121,0,0,1-7.891,2.955L42,48.732v7.251l1.655.183a17.1,17.1,0,0,1,7.891,2.959V45.59Z" transform="translate(-21.079 -25.048)" fill="#fff"/>
      <path id="Path_7530" data-name="Path 7530" d="M69.193,41.61A1.2,1.2,0,0,0,68,42.8V57.122a1.193,1.193,0,1,0,2.386,0V42.8A1.2,1.2,0,0,0,69.193,41.61Z" transform="translate(-36.737 -22.651)" fill="#fff"/>
    </g>
  </g>
</svg>
