<svg xmlns="http://www.w3.org/2000/svg" width="70" height="70" viewBox="0 0 70 70">
  <g id="Group_53288" data-name="Group 53288" transform="translate(-826 -466)">
    <g id="Group_53221" data-name="Group 53221" transform="translate(17 206)">
      <circle id="Ellipse_61" data-name="Ellipse 61" cx="35" cy="35" r="35" transform="translate(809 260)" fill="rgba(45,64,246,0.15)"/>
      <circle id="Ellipse_60" data-name="Ellipse 60" cx="30" cy="30" r="30" transform="translate(814 265)" fill="#2d40f6"/>
    </g>
    <path id="influencer-marketing" d="M21.815,26.723A4.717,4.717,0,1,1,17.04,31.44a4.746,4.746,0,0,1,4.775-4.716Zm24.264,5.163a.535.535,0,1,1-.276-1.034l2-.535a.535.535,0,0,1,.276,1.034ZM43.92,28.793a.535.535,0,1,1-1.034-.276l.5-1.858a.535.535,0,1,1,1.034.276Zm1.484,1.3,1.436-1.435a.536.536,0,1,0-.758-.757l-1.435,1.436a.536.536,0,1,0,.757.757Zm-.682,5.279a.536.536,0,0,1,.758-.758l1.36,1.36a.536.536,0,0,1-.758.757Zm1.118-1.587a.535.535,0,1,1,.276-1.034l1.961.525a.535.535,0,0,1-.276,1.034Zm-2.584,4.751a.808.808,0,0,0,.57-.987l-2.8-10.465a.806.806,0,1,0-1.557.417l2.8,10.465A.808.808,0,0,0,43.255,38.532Zm-9.5-7.132-2.247.6a1,1,0,0,0-.7,1.221l1.1,4.11a1,1,0,0,0,1.221.705l2.247-.6Zm2.695,5.923-1.7-6.363,3.875-2.474,2.423,9.042Zm7.437-3.687-.858-3.2a2.156,2.156,0,0,1,.858,3.2ZM30.719,37.051a1.724,1.724,0,0,1-.8-2.992Zm3.17,1.891,1.747,3.027a.482.482,0,0,0,.657.176l.866-.5a.482.482,0,0,0,.176-.657L35.85,38.417ZM43.569,11H30.2a.89.89,0,0,0-.887.887v8.451a.89.89,0,0,0,.887.887h8.047l1.834,1.411,1.978,1.522V21.225h1.507a.89.89,0,0,0,.887-.887V11.887A.89.89,0,0,0,43.569,11ZM32.221,13.911a.536.536,0,0,1,0-1.071h9.33a.536.536,0,0,1,0,1.071Zm0,5.474a.536.536,0,0,1,0-1.071h9.33a.536.536,0,0,1,0,1.071Zm0-2.737a.536.536,0,0,1,0-1.071h9.33a.536.536,0,0,1,0,1.071Zm-5.845-2.113a.89.89,0,0,0-.887.887v8.45a.89.89,0,0,0,.887.887h1.507v2.932l1.978-1.522,1.833-1.411h8.048a.889.889,0,0,0,.768-.445L37.886,22.3H30.2a1.962,1.962,0,0,1-1.959-1.959v-5.8ZM13.886,46H29.744V42.2a6.77,6.77,0,0,0-4.249-6.264,5.891,5.891,0,0,1-7.36,0A6.77,6.77,0,0,0,13.886,42.2V46Z" transform="translate(830.128 473)" fill="#fff" fill-rule="evenodd"/>
  </g>
</svg>
