<svg xmlns="http://www.w3.org/2000/svg" width="70" height="70" viewBox="0 0 70 70">
  <g id="Group_53292" data-name="Group 53292" transform="translate(-1231 -148)">
    <g id="Group_53239" data-name="Group 53239" transform="translate(422 -4)">
      <circle id="Ellipse_59" data-name="Ellipse 59" cx="35" cy="35" r="35" transform="translate(809 152)" fill="rgba(45,64,246,0.15)"/>
      <circle id="Ellipse_58" data-name="Ellipse 58" cx="30" cy="30" r="30" transform="translate(814 157)" fill="#2d40f6"/>
    </g>
    <g id="youtube_1_" data-name="youtube (1)" transform="translate(1148 4.48)">
      <path id="Path_7533" data-name="Path 7533" d="M146.2,161.52v21.644h1.832V163.588h28.743v19.576h1.832V161.52Z" transform="translate(-44.084)" fill="#fff"/>
      <path id="Path_7534" data-name="Path 7534" d="M134.523,576.16H102.116L100,589.722h36.639Zm-15.059,3.908h1.824a.521.521,0,0,1,0,1.034h-1.824a.521.521,0,0,1,0-1.034Zm-4.168,0h1.823a.521.521,0,0,1,0,1.034H115.3a.521.521,0,0,1,0-1.034Zm-10.772,5.648h-1.772a.528.528,0,0,1,0-1.034h1.772a.528.528,0,0,1,0,1.034Zm.087-4.616h-1.824a.521.521,0,0,1,0-1.034h1.824a.521.521,0,0,1,0,1.034Zm3.963,4.616H106.8a.528.528,0,0,1,0-1.034h1.772a.528.528,0,0,1,0,1.034Zm.206-4.616h-1.824a.521.521,0,0,1,0-1.034h1.824a.521.521,0,0,1,0,1.034Zm3.844,4.616h-1.771a.528.528,0,0,1,0-1.034h1.772a.528.528,0,0,1,0,1.034Zm.325-4.616h-1.824a.521.521,0,0,1,0-1.034h1.824a.521.521,0,0,1,0,1.034Zm1.168,6.286,1.263-3.822h5.877l1.263,3.822Zm9.081-6.8a.482.482,0,0,1,.435-.517h1.824a.521.521,0,0,1,0,1.034h-1.826A.482.482,0,0,1,123.2,580.585Zm3.032,5.131h-1.663a.535.535,0,0,1,0-1.034h1.663a.535.535,0,0,1,0,1.034Zm1.137-5.133a.482.482,0,0,1,.435-.517h1.824a.521.521,0,0,1,0,1.034H127.8a.481.481,0,0,1-.435-.515Zm2.665,5.133H128.37a.536.536,0,0,1,0-1.034h1.663a.536.536,0,0,1,0,1.034Zm3.8,0h-1.663a.535.535,0,0,1,0-1.034h1.663a.535.535,0,0,1,0,1.034ZM133.8,581.1h-1.824a.521.521,0,0,1,0-1.034H133.8a.521.521,0,0,1,0,1.034Z" transform="translate(0 -393.202)" fill="#fff"/>
      <path id="Path_7535" data-name="Path 7535" d="M324.929,256.07h-10.89a3.446,3.446,0,0,0-3.219,3.634v6.463a3.446,3.446,0,0,0,3.219,3.634h10.89a3.446,3.446,0,0,0,3.219-3.634V259.7A3.446,3.446,0,0,0,324.929,256.07Zm-2.412,7.569-5.423,3.078a.645.645,0,0,1-.7-.035.836.836,0,0,1-.339-.689v-6.119a.836.836,0,0,1,.338-.687.645.645,0,0,1,.7-.037l5.423,3.043a.858.858,0,0,1,0,1.446Z" transform="translate(-201.165 -89.662)" fill="#fff"/>
    </g>
  </g>
</svg>
