<svg xmlns="http://www.w3.org/2000/svg" width="70" height="70" viewBox="0 0 70 70">
  <g id="Group_53291" data-name="Group 53291" transform="translate(-826 -254)">
    <g id="Group_53218" data-name="Group 53218" transform="translate(17 -6)">
      <circle id="Ellipse_61" data-name="Ellipse 61" cx="35" cy="35" r="35" transform="translate(809 260)" fill="rgba(45,64,246,0.15)"/>
      <circle id="Ellipse_60" data-name="Ellipse 60" cx="30" cy="30" r="30" transform="translate(814 265)" fill="#2d40f6"/>
    </g>
    <path id="social-media_2_" data-name="social-media (2)" d="M40.185,31.023l1.067,1.126v-.786a.494.494,0,0,1,.494-.494h.743a1.258,1.258,0,0,0,1.256-1.256V24.347H42.076a2.247,2.247,0,0,1-2.2-1.795H35.229a1.258,1.258,0,0,0-1.256,1.256v5.8a1.258,1.258,0,0,0,1.256,1.256h4.6a.494.494,0,0,1,.359.154Zm-2.792-1.276a.494.494,0,0,1-.707-.514l.234-1.617-1.14-1.172a.494.494,0,0,1,.27-.831l1.61-.278.763-1.446a.494.494,0,0,1,.874,0l.763,1.446,1.61.278a.494.494,0,0,1,.27.831L40.8,27.615l.234,1.617a.494.494,0,0,1-.707.514l-1.466-.722Zm6.5-8.592h-.4V18.946h.4Zm2.784,2.205a.494.494,0,0,1,.359.154L48.1,24.64v-.786a.494.494,0,0,1,.494-.494h.743a1.257,1.257,0,0,0,1.256-1.254V16.3a1.258,1.258,0,0,0-1.256-1.256H42.076A1.258,1.258,0,0,0,40.82,16.3v5.805a1.257,1.257,0,0,0,1.256,1.254ZM42.5,18.674a.717.717,0,0,1,.716-.716h.944A.712.712,0,0,1,44.4,18l.835-1.5a.694.694,0,0,1,.612-.36h.089a.7.7,0,0,1,.7.7v1.286h1.576a.7.7,0,0,1,.676.879l-.737,2.75a.7.7,0,0,1-.676.519H45.221a.494.494,0,0,1-.247-.066l-.372-.215a.712.712,0,0,1-.442.154h-.944a.717.717,0,0,1-.716-.716ZM64.367,32.087l.94.2v1.346l-.94.2a.494.494,0,0,0-.353.294L63.489,35.4a.494.494,0,0,0,.042.458l.523.805-.952.954L62.3,37.09a.494.494,0,0,0-.458-.042l-1.27.525a.494.494,0,0,0-.294.353l-.2.938H58.822V36.148a3.239,3.239,0,1,0,0-6.374V27.054h1.252l.2.94a.494.494,0,0,0,.294.354l1.27.525a.494.494,0,0,0,.458-.042l.805-.523.952.952-.523.805a.494.494,0,0,0-.042.458l.525,1.27a.494.494,0,0,0,.354.295ZM45.353,21.281l-.476-.275V19.179l.771-1.389v.825a.494.494,0,0,0,.494.494h1.694l-.582,2.172Zm-6,19.616a2.105,2.105,0,0,0,2.1,2.1H55.731a2.105,2.105,0,0,0,2.1-2.1V39.835H39.353Zm7.792.027h2.9a.494.494,0,1,1,0,.988h-2.9a.494.494,0,0,1,0-.988ZM57.352,21.25a.494.494,0,0,1-.311-.459V19.259h-.249a2.247,2.247,0,0,1-2.244-2.244v-5.8a2.247,2.247,0,0,1,2.244-2.244H57.5A2.1,2.1,0,0,0,55.731,8H53.18v.992A1.278,1.278,0,0,1,51.9,10.269H45.285a1.278,1.278,0,0,1-1.277-1.277V8H41.456a2.105,2.105,0,0,0-2.1,2.1V21.565h.479V16.3a2.247,2.247,0,0,1,2.244-2.244h7.259A2.247,2.247,0,0,1,51.58,16.3v5.805a2.246,2.246,0,0,1-2.244,2.242h-.249v1.531a.494.494,0,0,1-.852.34l-1.773-1.871H44.733v5.265a2.247,2.247,0,0,1-2.244,2.244H42.24v1.531a.494.494,0,0,1-.852.34l-1.773-1.871h-.261v6.991H57.834V21.183a.492.492,0,0,1-.483.067ZM46.514,35.421a.494.494,0,1,1,.494-.494A.5.5,0,0,1,46.514,35.421Zm2.078,0a.494.494,0,1,1,.494-.494A.5.5,0,0,1,48.593,35.421Zm2.08,0a.494.494,0,1,1,.494-.494A.5.5,0,0,1,50.673,35.421ZM45,8.992V8h7.2v.992a.293.293,0,0,1-.289.289H45.285A.293.293,0,0,1,45,8.992ZM59.4,35.212a2.246,2.246,0,0,1-.579-.076v-4.35a2.251,2.251,0,1,1,.579,4.426Zm4.65-25.256H56.792a1.258,1.258,0,0,0-1.256,1.256v5.8a1.258,1.258,0,0,0,1.256,1.256h.743a.494.494,0,0,1,.494.494v.786L59.1,18.426a.494.494,0,0,1,.359-.154h4.6a1.258,1.258,0,0,0,1.256-1.256v-5.8a1.258,1.258,0,0,0-1.256-1.256Zm-3.4,6.891a.494.494,0,0,1-.454,0c-2.661-1.376-2.96-2.851-2.9-3.607a2.1,2.1,0,0,1,1.4-1.82,1.634,1.634,0,0,1,1.726.39,1.634,1.634,0,0,1,1.726-.39,2.1,2.1,0,0,1,1.4,1.82C63.609,14,63.31,15.471,60.648,16.847Zm1.917-3.531c.064.829-.714,1.744-2.144,2.532-1.43-.788-2.208-1.7-2.144-2.532a1.1,1.1,0,0,1,.73-.96.823.823,0,0,1,.257-.044.625.625,0,0,1,.484.224l.3.343a.494.494,0,0,0,.743,0l.3-.342a.664.664,0,0,1,.742-.181,1.1,1.1,0,0,1,.73.96ZM39.921,27.1a.494.494,0,0,0-.135.415l.134.93-.843-.415a.5.5,0,0,0-.436,0l-.843.415.134-.93A.494.494,0,0,0,37.8,27.1l-.656-.674.926-.16a.494.494,0,0,0,.353-.256l.439-.833.439.833a.494.494,0,0,0,.353.256l.926.16Z" transform="translate(811.36 263.5)" fill="#fff"/>
  </g>
</svg>
